<?xml version="1.0" encoding="UTF-8" standalone="no"?>
<!DOCTYPE svg PUBLIC "-//W3C//DTD SVG 1.1//EN" "http://www.w3.org/Graphics/SVG/1.1/DTD/svg11.dtd">
<svg width="100%" height="100%" viewBox="0 0 240 240" version="1.1" xmlns="http://www.w3.org/2000/svg" xmlns:xlink="http://www.w3.org/1999/xlink" xml:space="preserve" xmlns:serif="http://www.serif.com/" style="fill-rule:evenodd;clip-rule:evenodd;stroke-linejoin:round;stroke-miterlimit:2;">
    <path d="M43.031,128.737L36,120L56.66,94.024L56.66,117.217L43.031,128.737ZM81.66,62.591L120.505,13.75L140.626,39.049L128.125,86.11L111.167,79.616C106.912,77.986 102.107,78.801 98.627,81.742L81.66,96.085L81.66,62.591ZM138.358,90.029L144.659,44.121L162.196,66.171C161.054,67.693 160.259,69.476 159.903,71.398L159.903,71.401L139.203,90.353L138.358,90.029ZM180.336,88.981L205.005,120L178.065,153.476L125.119,153.476L133.9,122.512L134.867,115.463L137.476,116.462C141.897,118.155 146.896,117.205 150.388,114.008L176.767,89.855L176.79,89.853C178.023,89.736 179.216,89.439 180.336,88.981ZM157.946,178.476L120.505,225L108.919,210.603L118.029,178.476L157.946,178.476ZM111.11,178.476L106.765,207.927L83.063,178.476L111.11,178.476ZM121.67,110.409L120.505,114.795L114.798,153.476L81.66,153.476L81.66,128.819L109.124,105.604L121.67,110.409ZM66.66,128.405L42.06,149.198C41.007,150.089 39.428,149.957 38.537,148.903C37.647,147.849 37.779,146.27 38.833,145.38L66.66,121.858L66.66,29.914C66.66,28.534 67.78,27.414 69.16,27.414C70.54,27.414 71.66,28.534 71.66,29.914L71.66,117.631L105.083,89.38C105.779,88.791 106.74,88.628 107.591,88.954L141.398,101.902L170.366,75.378L170.349,75.359C169.82,74.781 169.594,73.988 169.736,73.218C169.879,72.447 170.374,71.789 171.075,71.438L179.327,67.304C180.098,66.918 181.015,66.954 181.756,67.409C182.054,67.592 182.308,67.834 182.506,68.121C183.064,68.932 183.097,70.002 182.577,70.848L177.738,78.718C177.327,79.387 176.626,79.824 175.845,79.898C175.063,79.972 174.293,79.675 173.763,79.096L173.739,79.07L143.635,106.633C142.936,107.272 141.937,107.462 141.052,107.124L107.182,94.152L71.66,124.178L71.66,163.476L192.285,163.476C193.665,163.476 194.785,164.597 194.785,165.976C194.785,167.356 193.665,168.476 192.285,168.476L71.66,168.476L71.66,199.677C71.66,201.057 70.54,202.177 69.16,202.177C67.78,202.177 66.66,201.057 66.66,199.677L66.66,168.476L42.679,168.476C41.299,168.476 40.179,167.356 40.179,165.976C40.179,164.597 41.299,163.476 42.679,163.476L66.66,163.476L66.66,128.405Z" style="fill:white;"/>
    <path d="M54.16,77.213L54.16,29.914C54.16,21.635 60.881,14.914 69.16,14.914C77.439,14.914 84.16,21.635 84.16,29.914L84.16,39.366L110.722,5.969C113.094,2.987 116.696,1.25 120.506,1.25C124.315,1.25 127.917,2.988 130.289,5.969L171.19,57.399L173.728,56.128L173.735,56.124C178.358,53.812 183.859,54.03 188.299,56.758C190.091,57.859 191.619,59.312 192.805,61.038C196.151,65.903 196.347,72.317 193.225,77.394L190.552,81.744L214.789,112.219C218.428,116.795 218.409,123.282 214.744,127.837L195.79,151.389C202.38,152.969 207.285,158.904 207.285,165.976C207.285,174.255 200.564,180.976 192.285,180.976L171.954,180.976L130.244,232.837C127.871,235.785 124.29,237.5 120.506,237.5C116.721,237.5 113.14,235.786 110.767,232.837L84.16,199.777C84.106,208.01 77.406,214.677 69.16,214.677C60.881,214.677 54.16,207.956 54.16,199.677L54.16,180.976L42.679,180.976C34.4,180.976 27.679,174.255 27.679,165.976C27.679,163.054 28.516,160.326 29.964,158.019C29.626,157.689 29.302,157.34 28.991,156.972C23.646,150.65 24.441,141.178 30.763,135.833L31.914,134.86L26.262,127.837C22.596,123.282 22.578,116.795 26.217,112.219L54.16,77.213Z" style="fill:white;"/>
    <path d="M43.031,128.737L36,120L56.66,94.024L56.66,117.217L43.031,128.737ZM81.66,62.591L120.505,13.75L140.626,39.049L128.125,86.11L111.167,79.616C106.912,77.986 102.107,78.801 98.627,81.742L81.66,96.085L81.66,62.591ZM138.358,90.029L144.659,44.121L162.196,66.171C161.054,67.693 160.259,69.476 159.903,71.398L159.903,71.401L139.203,90.353L138.358,90.029ZM180.336,88.981L205.005,120L178.065,153.476L125.119,153.476L133.9,122.512L134.867,115.463L137.476,116.462C141.897,118.155 146.896,117.205 150.388,114.008L176.767,89.855L176.79,89.853C178.023,89.736 179.216,89.439 180.336,88.981ZM157.946,178.476L120.505,225L108.919,210.603L118.029,178.476L157.946,178.476ZM111.11,178.476L106.765,207.927L83.063,178.476L111.11,178.476ZM121.67,110.409L120.505,114.795L114.798,153.476L81.66,153.476L81.66,128.819L109.124,105.604L121.67,110.409Z" style="fill:rgb(183,28,28);"/>
    <path d="M66.66,128.405L42.06,149.198C41.007,150.089 39.428,149.957 38.537,148.903C37.647,147.849 37.779,146.27 38.833,145.38L66.66,121.858L66.66,29.914C66.66,28.534 67.78,27.414 69.16,27.414C70.54,27.414 71.66,28.534 71.66,29.914L71.66,117.631L105.083,89.38C105.779,88.791 106.74,88.628 107.591,88.954L141.398,101.902L170.366,75.378L170.349,75.359C169.82,74.781 169.594,73.988 169.736,73.218C169.879,72.447 170.374,71.789 171.075,71.438L179.327,67.304C180.098,66.918 181.015,66.954 181.756,67.409C182.054,67.592 182.308,67.834 182.506,68.121C183.064,68.932 183.097,70.002 182.577,70.848L177.738,78.718C177.327,79.387 176.626,79.824 175.845,79.898C175.063,79.972 174.293,79.675 173.763,79.096L173.739,79.07L143.635,106.633C142.936,107.272 141.937,107.462 141.052,107.124L107.182,94.152L71.66,124.178L71.66,163.476L192.285,163.476C193.665,163.476 194.785,164.597 194.785,165.976C194.785,167.356 193.665,168.476 192.285,168.476L71.66,168.476L71.66,199.677C71.66,201.057 70.54,202.177 69.16,202.177C67.78,202.177 66.66,201.057 66.66,199.677L66.66,168.476L42.679,168.476C41.299,168.476 40.179,167.356 40.179,165.976C40.179,164.597 41.299,163.476 42.679,163.476L66.66,163.476L66.66,128.405Z"/>
</svg>
